<svg width="190" height="56" viewBox="0 0 190 56" fill="none" xmlns="http://www.w3.org/2000/svg">
<path d="M110.644 16.5136V15.5386H117.755V16.5136H114.775V24.3028H113.609V16.5136H110.644Z" fill="#666666"/>
<path d="M119.3 24.3021V15.5386H123.068C123.938 15.5386 124.647 15.7791 125.196 16.2603C125.745 16.7421 126.019 17.3827 126.019 18.1819C126.019 18.5655 125.952 18.9164 125.817 19.2346C125.682 19.5527 125.499 19.8168 125.272 20.0253C125.043 20.2338 124.783 20.3997 124.493 20.5228C124.202 20.6459 123.894 20.7199 123.569 20.7463L126.102 24.3028H124.722L122.347 20.8381H120.467V24.3028H119.3V24.3021ZM120.467 19.863H122.924C123.477 19.863 123.93 19.7064 124.283 19.394C124.635 19.0823 124.811 18.678 124.811 18.1812C124.811 17.6851 124.637 17.283 124.287 16.9748C123.936 16.6674 123.482 16.5129 122.924 16.5129H120.467V19.863Z" fill="#666666"/>
<path d="M126.884 24.3023L130.665 15.5381H132.113L135.881 24.3023H134.55L133.719 22.3586H129.052L128.222 24.3023H126.884ZM129.403 21.3835H133.383L131.386 16.6548L129.403 21.3835Z" fill="#666666"/>
<path d="M137.103 24.3021V15.5386H138.27V24.3028H137.103V24.3021Z" fill="#666666"/>
<path d="M140.46 24.3021V15.5386H141.654L147.049 22.3847V15.5386H148.216V24.3028H147.09L141.627 17.3093V24.3028H140.46V24.3021Z" fill="#666666"/>
<path d="M150.405 24.3021V15.5386H151.572V24.3028H150.405V24.3021Z" fill="#666666"/>
<path d="M153.761 24.3021V15.5386H154.955L160.35 22.3847V15.5386H161.517V24.3028H160.391L154.928 17.3093V24.3028H153.761V24.3021Z" fill="#666666"/>
<path d="M163.703 21.7848C163.45 21.214 163.323 20.5941 163.323 19.9243C163.323 19.2546 163.45 18.6354 163.703 18.0653C163.957 17.4952 164.3 17.0155 164.733 16.6269C165.165 16.2383 165.675 15.9351 166.266 15.7173C166.856 15.4995 167.482 15.3906 168.146 15.3906C169.638 15.3906 170.858 15.9337 171.807 17.0191L170.863 17.5699C170.56 17.2027 170.169 16.9102 169.69 16.6924C169.21 16.4746 168.696 16.3657 168.146 16.3657C167.111 16.3657 166.249 16.6981 165.562 17.3621C164.874 18.0261 164.531 18.8788 164.531 19.9215C164.531 20.6047 164.689 21.2211 165.005 21.7691C165.321 22.3178 165.754 22.7435 166.304 23.0459C166.855 23.3484 167.468 23.5007 168.146 23.5007C168.664 23.5007 169.146 23.4075 169.596 23.2196C170.044 23.0331 170.407 22.8104 170.681 22.5527V20.767H167.47V19.7919H171.849V22.9591C171.393 23.431 170.848 23.8018 170.215 24.0715C169.582 24.3406 168.892 24.4758 168.146 24.4758C167.482 24.4758 166.856 24.3662 166.266 24.1456C165.676 23.9249 165.165 23.6196 164.733 23.2281C164.3 22.8367 163.957 22.3556 163.703 21.7848Z" fill="#666666"/>
<path d="M173.165 23.064L173.865 22.222C174.204 22.59 174.624 22.8931 175.125 23.1309C175.626 23.3686 176.185 23.4874 176.803 23.4874C177.2 23.4874 177.55 23.4405 177.85 23.3465C178.149 23.2526 178.38 23.128 178.543 22.9736C178.705 22.8198 178.824 22.6583 178.9 22.4882C178.975 22.3188 179.012 22.1423 179.012 21.9579C179.012 21.7181 178.949 21.5074 178.824 21.3245C178.699 21.143 178.528 20.995 178.313 20.8811C178.099 20.7672 177.851 20.6719 177.57 20.595C177.288 20.5181 176.995 20.4377 176.689 20.3544C176.383 20.2711 176.077 20.1872 175.771 20.1032C175.466 20.0192 175.174 19.9153 174.898 19.7907C174.621 19.6662 174.375 19.5217 174.16 19.3559C173.945 19.19 173.775 18.9779 173.649 18.7175C173.523 18.4577 173.46 18.1595 173.46 17.8242C173.46 17.109 173.765 16.5246 174.376 16.0705C174.987 15.6172 175.76 15.3901 176.693 15.3901C178.065 15.3901 179.171 15.7994 180.008 16.6164L179.309 17.4193C178.645 16.7168 177.741 16.3652 176.597 16.3652C176.039 16.3652 175.578 16.4962 175.215 16.7581C174.851 17.0193 174.669 17.3581 174.669 17.7737C174.669 17.9858 174.731 18.1723 174.856 18.3317C174.982 18.4918 175.151 18.6228 175.365 18.7239C175.579 18.8256 175.825 18.9146 176.105 18.9908C176.385 19.0669 176.678 19.1473 176.986 19.2313C177.294 19.316 177.602 19.4 177.906 19.4833C178.211 19.5673 178.503 19.6761 178.78 19.81C179.057 19.9438 179.304 20.0989 179.519 20.2754C179.735 20.4519 179.905 20.6761 180.032 20.948C180.158 21.2206 180.221 21.5309 180.221 21.8796C180.221 22.2134 180.157 22.528 180.029 22.8241C179.901 23.1195 179.707 23.3928 179.446 23.6426C179.184 23.8931 178.824 24.0924 178.364 24.2397C177.905 24.3878 177.37 24.4611 176.762 24.4611C175.989 24.4611 175.299 24.3365 174.693 24.086C174.087 23.8355 173.577 23.496 173.165 23.064Z" fill="#666666"/>
<path d="M84.4453 4.09985L88.6367 7.12184L88.623 11.2584L92.0278 9.16236L95.3032 11.3239L102.658 0.54834L84.4453 4.09985ZM90.6078 8.12466L89.414 10.0072L89.4186 6.84498L100.357 1.92268L90.6078 8.12466Z" fill="#00A5EC"/>
<path d="M8.01294 15.4785H9.89428V24.3125H8.01294V15.4785Z" fill="#00A5EC"/>
<path d="M11.7903 24.3126V15.4844H12.4207L18.3373 21.0145V15.4844H20.2247V24.3119H19.5334L13.6777 18.838V24.3119H11.7903V24.3126Z" fill="#00A5EC"/>
<path d="M29.8902 15.4844V17.132H26.742V24.3119H24.8538V17.132H21.707V15.4844H29.8902Z" fill="#00A5EC"/>
<path d="M31.269 24.3126V15.4894L38.2089 15.4844V17.132H33.1588V19.0145H36.9451V20.6579H33.1588V22.6636H38.1952V24.3119H31.269V24.3126Z" fill="#00A5EC"/>
<path d="M45.7961 20.4622L48.1487 24.3126H45.9849L43.7213 20.6643H41.9976V24.3126H40.1094V15.4844H44.2269C46.431 15.4844 47.5312 16.3299 47.5312 18.0245C47.5312 19.3014 46.9533 20.1127 45.7961 20.4622ZM41.9983 19.0145H44.6441C45.4024 19.0017 45.7953 18.6793 45.8128 18.0452C45.7953 17.4623 45.41 17.1619 44.6616 17.137H41.9983V19.0145Z" fill="#00A5EC"/>
<path d="M49.1331 24.3126V15.4844H49.7604L55.6801 21.0145V15.4844H57.5683V24.3119H56.8747L51.0205 18.838V24.3119H49.1331V24.3126Z" fill="#00A5EC"/>
<path fill-rule="evenodd" clip-rule="evenodd" d="M74.3086 14.4136C78.8288 13.7994 83.0933 12.3389 87.4948 10.9731C86.1334 11.9952 75.9516 14.6677 74.3086 14.4136Z" fill="#666666"/>
<path fill-rule="evenodd" clip-rule="evenodd" d="M92.0279 9.16341L88.623 11.2587L90.6079 8.125L92.0279 9.16341Z" fill="#666666"/>
<path d="M64.64 15.7781C65.1204 15.9738 65.5726 16.2677 65.9914 16.6592L64.7351 17.8378C64.3141 17.3652 63.7271 17.131 62.9688 17.131C62.215 17.131 61.7315 17.2983 61.5222 17.6307C61.3128 17.9645 61.3128 18.2492 61.5222 18.4847C61.7315 18.7217 62.215 18.8975 62.9688 19.0143C63.769 19.0933 64.493 19.3388 65.1417 19.7523C65.7927 20.1623 66.117 20.8199 66.117 21.7231C66.117 22.4284 65.7706 23.0376 65.0778 23.5472C64.3819 24.0561 63.5725 24.3116 62.6497 24.3116C61.7726 24.3116 61.041 24.1935 60.4532 23.9586C59.8662 23.7223 59.3614 23.4099 58.9426 23.0163L60.2004 21.8391C60.6215 22.3117 61.3349 22.5857 62.3406 22.6633C63.1819 22.6633 63.7027 22.4974 63.9121 22.1644C64.12 21.8306 64.12 21.4968 63.9121 21.1623C63.7027 20.8299 63.1819 20.6228 62.3406 20.5452C61.5853 20.4669 60.894 20.2498 60.2644 19.8968C59.634 19.5438 59.3203 18.9353 59.3203 18.0727C59.3203 17.2912 59.6773 16.6642 60.393 16.1923C61.1103 15.7197 61.8419 15.4834 62.6003 15.4834C63.4774 15.4841 64.155 15.5823 64.64 15.7781Z" fill="#666666"/>
<path d="M67.8057 24.3122V15.4839H69.6954V19.0141H74.0946V15.4775H75.9866V24.3051L74.0946 24.3115V20.6632H69.6961V24.3115H67.8057V24.3122Z" fill="#666666"/>
<path d="M77.5283 24.3124L81.304 15.4849H83.1937L86.9647 24.306L84.957 24.3124L84.3883 22.9601H80.1078L79.5414 24.3124H77.5283ZM82.2991 17.8385L80.8631 21.1922H83.6969L82.2991 17.8385Z" fill="#666666"/>
<path d="M90.2835 15.4844V22.6636H95.3208V24.3119H88.3938V15.4844H90.2835Z" fill="#666666"/>
<path d="M96.377 24.3124L100.156 15.4849H102.045L105.815 24.306L103.808 24.3124L103.241 22.9601H98.9603L98.3946 24.3124H96.377ZM101.152 17.8385L99.7156 21.1922H102.549L101.152 17.8385Z" fill="#666666"/>
<path d="M1.61366 35.4026C1.30912 34.4405 2.02212 33.4587 3.03109 33.4508L186.748 32.0176C187.819 32.0092 188.554 33.0933 188.15 34.0846L180.409 53.0671C180.179 53.6313 179.631 54 179.021 54H8.59922C7.94485 54 7.36574 53.5758 7.16824 52.9518L1.61366 35.4026Z" fill="url(#paint0_linear_138_5267)"/>
<path d="M28.321 41.1795H26.1058C26.0654 40.8955 25.9828 40.6433 25.858 40.4228C25.7332 40.1989 25.5731 40.0085 25.3775 39.8515C25.182 39.6945 24.9561 39.5742 24.6998 39.4907C24.447 39.4071 24.1722 39.3654 23.8755 39.3654C23.3394 39.3654 22.8724 39.4973 22.4745 39.7613C22.0767 40.0219 21.7682 40.4027 21.549 40.9039C21.3298 41.4017 21.2203 42.0064 21.2203 42.718C21.2203 43.4497 21.3298 44.0644 21.549 44.5622C21.7715 45.06 22.0817 45.4358 22.4796 45.6897C22.8774 45.9437 23.3377 46.0706 23.8603 46.0706C24.1536 46.0706 24.425 46.0322 24.6745 45.9554C24.9274 45.8785 25.1516 45.7666 25.3472 45.6196C25.5427 45.4692 25.7046 45.2872 25.8327 45.0733C25.9642 44.8595 26.0552 44.6156 26.1058 44.3417L28.321 44.3517C28.2637 44.8228 28.1204 45.2771 27.8911 45.7148C27.6652 46.1491 27.3601 46.5383 26.9757 46.8825C26.5947 47.2232 26.1395 47.4938 25.6102 47.6943C25.0842 47.8914 24.4891 47.99 23.8249 47.99C22.901 47.99 22.075 47.7828 21.3467 47.3686C20.6218 46.9543 20.0486 46.3546 19.6271 45.5695C19.209 44.7844 19 43.8339 19 42.718C19 41.5988 19.2124 40.6466 19.6372 39.8615C20.0621 39.0764 20.6386 38.4784 21.3669 38.0674C22.0952 37.6532 22.9145 37.446 23.8249 37.446C24.425 37.446 24.9814 37.5295 25.4939 37.6966C26.0097 37.8636 26.4666 38.1075 26.8644 38.4282C27.2623 38.7456 27.586 39.1349 27.8355 39.5959C28.0884 40.0569 28.2502 40.5848 28.321 41.1795Z" fill="white"/>
<path d="M32.6139 47.995C32.1182 47.995 31.6766 47.9098 31.2888 47.7394C30.9011 47.5657 30.5942 47.3101 30.3683 46.9727C30.1458 46.6319 30.0345 46.2076 30.0345 45.6998C30.0345 45.2721 30.1138 44.913 30.2722 44.6223C30.4307 44.3317 30.6465 44.0978 30.9196 43.9207C31.1927 43.7437 31.5029 43.61 31.8502 43.5198C32.2008 43.4296 32.5684 43.3661 32.9527 43.3294C33.4045 43.2826 33.7687 43.2392 34.0452 43.1991C34.3216 43.1557 34.5223 43.0922 34.647 43.0087C34.7718 42.9251 34.8341 42.8015 34.8341 42.6378V42.6077C34.8341 42.2904 34.733 42.0448 34.5307 41.8711C34.3318 41.6973 34.0485 41.6105 33.681 41.6105C33.2933 41.6105 32.9848 41.6957 32.7555 41.8661C32.5262 42.0331 32.3745 42.2436 32.3003 42.4975L30.3076 42.3371C30.4088 41.8694 30.6077 41.4651 30.9044 41.1244C31.2011 40.7803 31.5838 40.5163 32.0525 40.3326C32.5245 40.1455 33.0707 40.0519 33.6911 40.0519C34.1227 40.0519 34.5357 40.1021 34.9302 40.2023C35.3281 40.3025 35.6804 40.4579 35.9872 40.6683C36.2974 40.8788 36.5419 41.1494 36.7206 41.4802C36.8993 41.8076 36.9886 42.2002 36.9886 42.6579V47.8497H34.9454V46.7822H34.8847C34.76 47.0228 34.5931 47.2349 34.384 47.4187C34.175 47.5991 33.9238 47.7411 33.6304 47.8446C33.3371 47.9449 32.9982 47.995 32.6139 47.995ZM33.2309 46.5216C33.5478 46.5216 33.8277 46.4598 34.0704 46.3362C34.3132 46.2093 34.5037 46.0389 34.6419 45.8251C34.7802 45.6112 34.8493 45.369 34.8493 45.0984V44.2815C34.7819 44.325 34.6891 44.3651 34.5711 44.4018C34.4565 44.4352 34.3267 44.467 34.1817 44.497C34.0367 44.5238 33.8917 44.5488 33.7468 44.5722C33.6018 44.5923 33.4703 44.6106 33.3523 44.6273C33.0994 44.6641 32.8786 44.7226 32.6897 44.8027C32.5009 44.8829 32.3543 44.9915 32.2497 45.1285C32.1452 45.2621 32.093 45.4292 32.093 45.6296C32.093 45.9203 32.1992 46.1424 32.4116 46.2961C32.6274 46.4465 32.9005 46.5216 33.2309 46.5216Z" fill="white"/>
<path d="M39.2079 47.8497V40.1522H41.2967V41.4952H41.3776C41.5192 41.0175 41.7569 40.6566 42.0907 40.4128C42.4245 40.1655 42.8089 40.0419 43.2438 40.0419C43.3517 40.0419 43.468 40.0486 43.5928 40.062C43.7175 40.0753 43.8271 40.0937 43.9215 40.1171V42.0114C43.8204 41.9813 43.6805 41.9546 43.5018 41.9312C43.3231 41.9078 43.1595 41.8961 43.0112 41.8961C42.6942 41.8961 42.411 41.9646 42.1615 42.1016C41.9154 42.2352 41.7198 42.4223 41.5748 42.6629C41.4332 42.9034 41.3624 43.1807 41.3624 43.4948V47.8497H39.2079Z" fill="white"/>
<path d="M49.1235 48C48.3244 48 47.6366 47.8396 47.06 47.5189C46.4868 47.1948 46.0451 46.7371 45.7349 46.1458C45.4247 45.5511 45.2696 44.8478 45.2696 44.036C45.2696 43.2442 45.4247 42.5493 45.7349 41.9513C46.0451 41.3532 46.4818 40.8872 47.0448 40.5531C47.6113 40.219 48.2755 40.0519 49.0375 40.0519C49.55 40.0519 50.0271 40.1338 50.4688 40.2975C50.9138 40.4579 51.3016 40.7001 51.632 41.0241C51.9658 41.3482 52.2254 41.7558 52.4109 42.2469C52.5963 42.7347 52.689 43.306 52.689 43.9608V44.5472H46.1294V43.2241H50.661C50.661 42.9168 50.5935 42.6445 50.4587 42.4073C50.3238 42.1701 50.1367 41.9847 49.8973 41.851C49.6613 41.714 49.3865 41.6456 49.0729 41.6456C48.7459 41.6456 48.4559 41.7207 48.203 41.8711C47.9535 42.0181 47.7579 42.2169 47.6163 42.4674C47.4747 42.7147 47.4022 42.9903 47.3989 43.2943V44.5522C47.3989 44.933 47.4697 45.2621 47.6113 45.5394C47.7563 45.8167 47.9602 46.0305 48.2232 46.1809C48.4862 46.3312 48.7981 46.4064 49.1589 46.4064C49.3983 46.4064 49.6174 46.373 49.8164 46.3062C50.0153 46.2393 50.1856 46.1391 50.3272 46.0055C50.4688 45.8718 50.5767 45.7081 50.6509 45.5144L52.6435 45.6446C52.5424 46.1191 52.335 46.5333 52.0214 46.8875C51.7112 47.2383 51.31 47.5122 50.8177 47.7093C50.3289 47.9031 49.7641 48 49.1235 48Z" fill="white"/>
<path d="M58.1831 48C57.384 48 56.6961 47.8396 56.1196 47.5189C55.5464 47.1948 55.1047 46.7371 54.7945 46.1458C54.4843 45.5511 54.3292 44.8478 54.3292 44.036C54.3292 43.2442 54.4843 42.5493 54.7945 41.9513C55.1047 41.3532 55.5413 40.8872 56.1044 40.5531C56.6709 40.219 57.3351 40.0519 58.0971 40.0519C58.6096 40.0519 59.0867 40.1338 59.5284 40.2975C59.9734 40.4579 60.3612 40.7001 60.6916 41.0241C61.0254 41.3482 61.285 41.7558 61.4704 42.2469C61.6559 42.7347 61.7486 43.306 61.7486 43.9608V44.5472H55.189V43.2241H59.7205C59.7205 42.9168 59.6531 42.6445 59.5182 42.4073C59.3834 42.1701 59.1962 41.9847 58.9569 41.851C58.7208 41.714 58.446 41.6456 58.1325 41.6456C57.8054 41.6456 57.5155 41.7207 57.2626 41.8711C57.0131 42.0181 56.8175 42.2169 56.6759 42.4674C56.5343 42.7147 56.4618 42.9903 56.4584 43.2943V44.5522C56.4584 44.933 56.5292 45.2621 56.6709 45.5394C56.8158 45.8167 57.0198 46.0305 57.2828 46.1809C57.5458 46.3312 57.8577 46.4064 58.2185 46.4064C58.4578 46.4064 58.677 46.373 58.8759 46.3062C59.0749 46.2393 59.2451 46.1391 59.3867 46.0055C59.5284 45.8718 59.6363 45.7081 59.7104 45.5144L61.7031 45.6446C61.6019 46.1191 61.3946 46.5333 61.081 46.8875C60.7708 47.2383 60.3696 47.5122 59.8773 47.7093C59.3884 47.9031 58.8237 48 58.1831 48Z" fill="white"/>
<path d="M63.7024 47.8497V40.1522H65.7911V41.4952H65.872C66.0137 41.0175 66.2514 40.6566 66.5852 40.4128C66.919 40.1655 67.3033 40.0419 67.7383 40.0419C67.8462 40.0419 67.9625 40.0486 68.0872 40.062C68.212 40.0753 68.3216 40.0937 68.416 40.1171V42.0114C68.3148 41.9813 68.1749 41.9546 67.9962 41.9312C67.8175 41.9078 67.654 41.8961 67.5056 41.8961C67.1887 41.8961 66.9055 41.9646 66.656 42.1016C66.4098 42.2352 66.2143 42.4223 66.0693 42.6629C65.9277 42.9034 65.8569 43.1807 65.8569 43.4948V47.8497H63.7024Z" fill="white"/>
<path d="M73.9621 47.8497V37.5863H76.152V42.1116H76.2886L80.016 37.5863H82.6408L78.7971 42.1818L82.6864 47.8497H80.0666L77.2293 43.6301L76.152 44.933V47.8497H73.9621Z" fill="white"/>
<path d="M84.2886 47.8497V40.1522H86.4431V47.8497H84.2886ZM85.3709 39.1599C85.0506 39.1599 84.7758 39.0547 84.5466 38.8442C84.3207 38.6304 84.2077 38.3748 84.2077 38.0774C84.2077 37.7834 84.3207 37.5312 84.5466 37.3207C84.7758 37.1069 85.0506 37 85.3709 37C85.6912 37 85.9644 37.1069 86.1903 37.3207C86.4195 37.5312 86.5342 37.7834 86.5342 38.0774C86.5342 38.3748 86.4195 38.6304 86.1903 38.8442C85.9644 39.0547 85.6912 39.1599 85.3709 39.1599Z" fill="white"/>
<path d="M99.4694 40.9039C99.3986 40.66 99.2991 40.4445 99.171 40.2574C99.0428 40.067 98.8861 39.9066 98.7006 39.7763C98.5186 39.6427 98.3095 39.5408 98.0735 39.4706C97.8408 39.4005 97.5829 39.3654 97.2997 39.3654C96.7703 39.3654 96.305 39.4957 95.9038 39.7563C95.506 40.0169 95.1958 40.3961 94.9732 40.8938C94.7507 41.3883 94.6394 41.993 94.6394 42.708C94.6394 43.4229 94.749 44.031 94.9682 44.5321C95.1873 45.0333 95.4975 45.4158 95.8988 45.6797C96.3 45.9403 96.7737 46.0706 97.3199 46.0706C97.8156 46.0706 98.2387 45.9838 98.5894 45.81C98.9434 45.633 99.2131 45.3841 99.3986 45.0633C99.5874 44.7426 99.6818 44.3634 99.6818 43.9257L100.127 43.9909H97.4565V42.3572H101.791V43.6501C101.791 44.5522 101.599 45.3273 101.214 45.9754C100.83 46.6202 100.3 47.118 99.6261 47.4688C98.9518 47.8162 98.1797 47.99 97.3098 47.99C96.3388 47.99 95.4857 47.7778 94.7507 47.3535C94.0157 46.9259 93.4425 46.3195 93.0311 45.5344C92.6232 44.7459 92.4192 43.8105 92.4192 42.728C92.4192 41.8961 92.5406 41.1544 92.7833 40.503C93.0294 39.8481 93.3734 39.2935 93.8151 38.8392C94.2567 38.3848 94.7709 38.039 95.3576 37.8018C95.9443 37.5646 96.5798 37.446 97.2643 37.446C97.851 37.446 98.3972 37.5312 98.9029 37.7016C99.4087 37.8686 99.8571 38.1058 100.248 38.4132C100.643 38.7206 100.965 39.0864 101.214 39.5107C101.464 39.9317 101.624 40.3961 101.695 40.9039H99.4694Z" fill="white"/>
<path d="M108.925 44.5722V40.1522H111.079V47.8497H109.011V46.4515H108.93C108.754 46.9025 108.463 47.265 108.055 47.539C107.65 47.8129 107.156 47.9499 106.573 47.9499C106.054 47.9499 105.597 47.833 105.202 47.5991C104.808 47.3652 104.499 47.0328 104.277 46.6018C104.058 46.1708 103.946 45.6547 103.943 45.0533V40.1522H106.098V44.6724C106.101 45.1268 106.224 45.486 106.467 45.7499C106.71 46.0138 107.035 46.1458 107.443 46.1458C107.702 46.1458 107.945 46.0873 108.171 45.9704C108.397 45.8501 108.579 45.673 108.717 45.4392C108.859 45.2053 108.928 44.9163 108.925 44.5722Z" fill="white"/>
<path d="M115.566 47.995C115.07 47.995 114.628 47.9098 114.24 47.7394C113.853 47.5657 113.546 47.3101 113.32 46.9727C113.097 46.6319 112.986 46.2076 112.986 45.6998C112.986 45.2721 113.065 44.913 113.224 44.6223C113.382 44.3317 113.598 44.0978 113.871 43.9207C114.144 43.7437 114.455 43.61 114.802 43.5198C115.152 43.4296 115.52 43.3661 115.904 43.3294C116.356 43.2826 116.72 43.2392 116.997 43.1991C117.273 43.1557 117.474 43.0922 117.599 43.0087C117.723 42.9251 117.786 42.8015 117.786 42.6378V42.6077C117.786 42.2904 117.685 42.0448 117.482 41.8711C117.283 41.6973 117 41.6105 116.633 41.6105C116.245 41.6105 115.936 41.6957 115.707 41.8661C115.478 42.0331 115.326 42.2436 115.252 42.4975L113.259 42.3371C113.36 41.8694 113.559 41.4651 113.856 41.1244C114.153 40.7803 114.535 40.5163 115.004 40.3326C115.476 40.1455 116.022 40.0519 116.643 40.0519C117.074 40.0519 117.487 40.1021 117.882 40.2023C118.28 40.3025 118.632 40.4579 118.939 40.6683C119.249 40.8788 119.494 41.1494 119.672 41.4802C119.851 41.8076 119.94 42.2002 119.94 42.6579V47.8497H117.897V46.7822H117.836C117.712 47.0228 117.545 47.2349 117.336 47.4187C117.127 47.5991 116.875 47.7411 116.582 47.8446C116.289 47.9449 115.95 47.995 115.566 47.995ZM116.183 46.5216C116.499 46.5216 116.779 46.4598 117.022 46.3362C117.265 46.2093 117.455 46.0389 117.594 45.8251C117.732 45.6112 117.801 45.369 117.801 45.0984V44.2815C117.734 44.325 117.641 44.3651 117.523 44.4018C117.408 44.4352 117.278 44.467 117.133 44.497C116.988 44.5238 116.843 44.5488 116.698 44.5722C116.553 44.5923 116.422 44.6106 116.304 44.6273C116.051 44.6641 115.83 44.7226 115.641 44.8027C115.453 44.8829 115.306 44.9915 115.201 45.1285C115.097 45.2621 115.045 45.4292 115.045 45.6296C115.045 45.9203 115.151 46.1424 115.363 46.2961C115.579 46.4465 115.852 46.5216 116.183 46.5216Z" fill="white"/>
<path d="M122.16 47.8497V40.1522H124.248V41.4952H124.329C124.471 41.0175 124.709 40.6566 125.042 40.4128C125.376 40.1655 125.761 40.0419 126.195 40.0419C126.303 40.0419 126.42 40.0486 126.544 40.062C126.669 40.0753 126.779 40.0937 126.873 40.1171V42.0114C126.772 41.9813 126.632 41.9546 126.453 41.9312C126.275 41.9078 126.111 41.8961 125.963 41.8961C125.646 41.8961 125.363 41.9646 125.113 42.1016C124.867 42.2352 124.671 42.4223 124.526 42.6629C124.385 42.9034 124.314 43.1807 124.314 43.4948V47.8497H122.16Z" fill="white"/>
<path d="M130.75 47.995C130.254 47.995 129.813 47.9098 129.425 47.7394C129.037 47.5657 128.73 47.3101 128.505 46.9727C128.282 46.6319 128.171 46.2076 128.171 45.6998C128.171 45.2721 128.25 44.913 128.408 44.6223C128.567 44.3317 128.783 44.0978 129.056 43.9207C129.329 43.7437 129.639 43.61 129.986 43.5198C130.337 43.4296 130.705 43.3661 131.089 43.3294C131.541 43.2826 131.905 43.2392 132.181 43.1991C132.458 43.1557 132.658 43.0922 132.783 43.0087C132.908 42.9251 132.97 42.8015 132.97 42.6378V42.6077C132.97 42.2904 132.869 42.0448 132.667 41.8711C132.468 41.6973 132.185 41.6105 131.817 41.6105C131.429 41.6105 131.121 41.6957 130.892 41.8661C130.662 42.0331 130.511 42.2436 130.436 42.4975L128.444 42.3371C128.545 41.8694 128.744 41.4651 129.041 41.1244C129.337 40.7803 129.72 40.5163 130.189 40.3326C130.661 40.1455 131.207 40.0519 131.827 40.0519C132.259 40.0519 132.672 40.1021 133.066 40.2023C133.464 40.3025 133.817 40.4579 134.123 40.6683C134.434 40.8788 134.678 41.1494 134.857 41.4802C135.035 41.8076 135.125 42.2002 135.125 42.6579V47.8497H133.082V46.7822H133.021C132.896 47.0228 132.729 47.2349 132.52 47.4187C132.311 47.5991 132.06 47.7411 131.767 47.8446C131.473 47.9449 131.134 47.995 130.75 47.995ZM131.367 46.5216C131.684 46.5216 131.964 46.4598 132.207 46.3362C132.449 46.2093 132.64 46.0389 132.778 45.8251C132.916 45.6112 132.985 45.369 132.985 45.0984V44.2815C132.918 44.325 132.825 44.3651 132.707 44.4018C132.593 44.4352 132.463 44.467 132.318 44.497C132.173 44.5238 132.028 44.5488 131.883 44.5722C131.738 44.5923 131.606 44.6106 131.488 44.6273C131.236 44.6641 131.015 44.7226 130.826 44.8027C130.637 44.8829 130.49 44.9915 130.386 45.1285C130.281 45.2621 130.229 45.4292 130.229 45.6296C130.229 45.9203 130.335 46.1424 130.548 46.2961C130.764 46.4465 131.037 46.5216 131.367 46.5216Z" fill="white"/>
<path d="M139.499 43.3995V47.8497H137.344V40.1522H139.397V41.5103H139.488C139.66 41.0626 139.949 40.7084 140.353 40.4478C140.758 40.1839 141.248 40.0519 141.825 40.0519C142.365 40.0519 142.835 40.1689 143.236 40.4027C143.637 40.6366 143.949 40.9707 144.172 41.405C144.394 41.836 144.506 42.3505 144.506 42.9485V47.8497H142.351V43.3294C142.354 42.8583 142.233 42.4908 141.987 42.2269C141.741 41.9596 141.402 41.826 140.97 41.826C140.68 41.826 140.424 41.8878 140.202 42.0114C139.982 42.135 139.81 42.3154 139.686 42.5526C139.564 42.7865 139.502 43.0688 139.499 43.3995Z" fill="white"/>
<path d="M150.883 40.1522V41.7558H146.205V40.1522H150.883ZM147.267 38.308H149.422V45.4843C149.422 45.6814 149.452 45.8351 149.513 45.9453C149.573 46.0522 149.658 46.1274 149.766 46.1708C149.877 46.2143 150.005 46.236 150.15 46.236C150.251 46.236 150.352 46.2276 150.453 46.2109C150.555 46.1909 150.632 46.1759 150.686 46.1658L151.025 47.7544C150.917 47.7879 150.765 47.8263 150.57 47.8697C150.374 47.9165 150.137 47.9449 149.857 47.9549C149.337 47.9749 148.882 47.9065 148.491 47.7494C148.103 47.5924 147.802 47.3485 147.586 47.0178C147.37 46.687 147.264 46.2694 147.267 45.7649V38.308Z" fill="white"/>
<path d="M156.375 48C155.576 48 154.888 47.8396 154.311 47.5189C153.738 47.1948 153.297 46.7371 152.986 46.1458C152.676 45.5511 152.521 44.8478 152.521 44.036C152.521 43.2442 152.676 42.5493 152.986 41.9513C153.297 41.3532 153.733 40.8872 154.296 40.5531C154.863 40.219 155.527 40.0519 156.289 40.0519C156.801 40.0519 157.278 40.1338 157.72 40.2975C158.165 40.4579 158.553 40.7001 158.883 41.0241C159.217 41.3482 159.477 41.7558 159.662 42.2469C159.848 42.7347 159.94 43.306 159.94 43.9608V44.5472H153.381V43.2241H157.912C157.912 42.9168 157.845 42.6445 157.71 42.4073C157.575 42.1701 157.388 41.9847 157.149 41.851C156.913 41.714 156.638 41.6456 156.324 41.6456C155.997 41.6456 155.707 41.7207 155.454 41.8711C155.205 42.0181 155.009 42.2169 154.868 42.4674C154.726 42.7147 154.654 42.9903 154.65 43.2943V44.5522C154.65 44.933 154.721 45.2621 154.863 45.5394C155.008 45.8167 155.212 46.0305 155.475 46.1809C155.738 46.3312 156.049 46.4064 156.41 46.4064C156.65 46.4064 156.869 46.373 157.068 46.3062C157.267 46.2393 157.437 46.1391 157.579 46.0055C157.72 45.8718 157.828 45.7081 157.902 45.5144L159.895 45.6446C159.794 46.1191 159.586 46.5333 159.273 46.8875C158.963 47.2383 158.561 47.5122 158.069 47.7093C157.58 47.9031 157.015 48 156.375 48Z" fill="white"/>
<path d="M165.434 48C164.635 48 163.948 47.8396 163.371 47.5189C162.798 47.1948 162.356 46.7371 162.046 46.1458C161.736 45.5511 161.581 44.8478 161.581 44.036C161.581 43.2442 161.736 42.5493 162.046 41.9513C162.356 41.3532 162.793 40.8872 163.356 40.5531C163.922 40.219 164.586 40.0519 165.348 40.0519C165.861 40.0519 166.338 40.1338 166.78 40.2975C167.225 40.4579 167.613 40.7001 167.943 41.0241C168.277 41.3482 168.536 41.7558 168.722 42.2469C168.907 42.7347 169 43.306 169 43.9608V44.5472H162.44V43.2241H166.972C166.972 42.9168 166.905 42.6445 166.77 42.4073C166.635 42.1701 166.448 41.9847 166.208 41.851C165.972 41.714 165.697 41.6456 165.384 41.6456C165.057 41.6456 164.767 41.7207 164.514 41.8711C164.264 42.0181 164.069 42.2169 163.927 42.4674C163.786 42.7147 163.713 42.9903 163.71 43.2943V44.5522C163.71 44.933 163.781 45.2621 163.922 45.5394C164.067 45.8167 164.271 46.0305 164.534 46.1809C164.797 46.3312 165.109 46.4064 165.47 46.4064C165.709 46.4064 165.928 46.373 166.127 46.3062C166.326 46.2393 166.497 46.1391 166.638 46.0055C166.78 45.8718 166.888 45.7081 166.962 45.5144L168.954 45.6446C168.853 46.1191 168.646 46.5333 168.332 46.8875C168.022 47.2383 167.621 47.5122 167.129 47.7093C166.64 47.9031 166.075 48 165.434 48Z" fill="white"/>
<defs>
<linearGradient id="paint0_linear_138_5267" x1="-31.2972" y1="57.0937" x2="-24.7909" y2="2.17683" gradientUnits="userSpaceOnUse">
<stop stop-color="#008BDC"/>
<stop offset="1" stop-color="#1DC1F6"/>
</linearGradient>
</defs>
</svg>